<?xml version="1.0" encoding="UTF-8" standalone="no"?>
<!-- Created with Inkscape (http://www.inkscape.org/) -->

<svg
   xmlns:dc="http://purl.org/dc/elements/1.1/"
   xmlns:cc="http://creativecommons.org/ns#"
   xmlns:rdf="http://www.w3.org/1999/02/22-rdf-syntax-ns#"
   xmlns:svg="http://www.w3.org/2000/svg"
   xmlns="http://www.w3.org/2000/svg"
   xmlns:sodipodi="http://sodipodi.sourceforge.net/DTD/sodipodi-0.dtd"
   xmlns:inkscape="http://www.inkscape.org/namespaces/inkscape"
   id="svg3390"
   version="1.1"
   inkscape:version="0.91 r13725"
   width="800"
   height="800"
   viewBox="0 0 800 800"
   sodipodi:docname="coffee.svg"
   inkscape:export-filename="/home/pyno/Documents/cryptcoffee/cryptcoffee.github.io/imgs/coffee_60x60.png"
   inkscape:export-xdpi="6.8699999"
   inkscape:export-ydpi="6.8699999">
  <metadata
     id="metadata3396">
    <rdf:RDF>
      <cc:Work
         rdf:about="">
        <dc:format>image/svg+xml</dc:format>
        <dc:type
           rdf:resource="http://purl.org/dc/dcmitype/StillImage" />
      </cc:Work>
    </rdf:RDF>
  </metadata>
  <defs
     id="defs3394" />
  <sodipodi:namedview
     pagecolor="#ffffff"
     bordercolor="#666666"
     borderopacity="1"
     objecttolerance="10"
     gridtolerance="10"
     guidetolerance="10"
     inkscape:pageopacity="0"
     inkscape:pageshadow="2"
     inkscape:window-width="1920"
     inkscape:window-height="1030"
     id="namedview3392"
     showgrid="false"
     inkscape:zoom="0.743346"
     inkscape:cx="135.69333"
     inkscape:cy="387.29183"
     inkscape:window-x="0"
     inkscape:window-y="25"
     inkscape:window-maximized="1"
     inkscape:current-layer="svg3390" />
  <path
     style="fill:#7fffd4;fill-opacity:1"
     d="m 208.39003,730.98498 0,-22.5 -20.625,0 -20.625,0 0,-21.875 0,-21.875 -21.25,0 -21.25,0 0,-133.125 0,-133.125 233.75,0 233.75,0 0,21.875 0,21.875 42.5,0 42.5,0 0,88.75 0,88.75 -42.5,0 -42.5,0 0,22.5 0,22.5 -42.5,0 -42.5,0 0,21.875 0,21.875 -21.25,0 -21.25,0 0,22.5 0,22.5 -128.125,0 -128.125,0 0,-22.5 z m 41.25,-89.375 0,-21.875 -19.375,0 -19.375,0 0,21.875 0,21.875 19.375,0 19.375,0 0,-21.875 z m -41.25,-110 0,-88.125 -19.375,0 -19.375,0 0,88.125 0,88.125 19.375,0 19.375,0 0,-88.125 z m 381.25,-0.625 0,-43.75 -20,0 -20,0 0,43.75 0,43.75 20,0 20,0 0,-43.75 z m -423.75,-219.375 0,-44.375 21.875,0 21.875,0 0,-44.375 0,-44.375 -21.875,0 -21.875,0 0,-44.375 0,-44.375003 22.5,0 22.5,0 0,44.375003 0,44.375 21.875,0 21.875,0 0,44.375 0,44.375 -21.875,0 -21.875,0 0,44.375 0,44.375 -22.5,0 -22.5,0 0,-44.375 z m 265,0.0289 0,-44.34615 22.1875,-0.34135 22.1875,-0.34133 0,-43.75 0,-43.75 -22.1875,-0.34134 -22.1875,-0.34139 0,-44.34615 0,-44.346163 22.5,0 22.5,0 0,44.375003 0,44.375 22.5,0 22.5,0 0,44.375 0,44.375 -22.5,0 -22.5,0 0,44.375 0,44.375 -22.5,0 -22.5,0 0,-44.34616 z m -132.5,-44.4039 0,-45 21.875,0 21.875,0 0,-43.75 0,-43.75 -21.875,0 -21.875,0 0,-45.000003 0,-45 22.5,0 22.5,0 0,44.375 0,44.375003 21.875,0 21.875,0 0,45 0,45 -21.875,0 -21.875,0 0,44.375 0,44.375 -22.5,0 -22.5,0 0,-45 z"
     id="path3400"
     inkscape:connector-curvature="0" />
</svg>
